<svg width="126" height="125" viewBox="0 0 126 125" fill="none" xmlns="http://www.w3.org/2000/svg">
<path d="M123.5 62.5C123.5 95.6183 96.432 122.5 63 122.5C29.568 122.5 2.5 95.6183 2.5 62.5C2.5 29.3817 29.568 2.5 63 2.5C96.432 2.5 123.5 29.3817 123.5 62.5Z" stroke="#FF9651" stroke-width="5"/>
<path d="M43.2322 61.2322C42.2559 62.2085 42.2559 63.7915 43.2322 64.7678L59.1421 80.6777C60.1184 81.654 61.7014 81.654 62.6777 80.6777C63.654 79.7014 63.654 78.1184 62.6777 77.1421L48.5355 63L62.6777 48.8579C63.654 47.8816 63.654 46.2986 62.6777 45.3223C61.7014 44.346 60.1184 44.346 59.1421 45.3223L43.2322 61.2322ZM95 60.5L45 60.5V65.5L95 65.5V60.5Z" fill="#E2E2E2"/>
</svg>
